Coordinates
version=1
nRows=16
nColumns=40
inDegrees=yes

Units are S.I. units (second, meters, Newtons, ...)
Angles are in degrees.

endheader
time	pelvis_tilt	pelvis_list	pelvis_rotation	pelvis_tx	pelvis_ty	pelvis_tz	hip_flexion_r	hip_adduction_r	hip_rotation_r	knee_angle_r	knee_angle_r_beta	ankle_angle_r	subtalar_angle_r	mtp_angle_r	hip_flexion_l	hip_adduction_l	hip_rotation_l	knee_angle_l	knee_angle_l_beta	ankle_angle_l	subtalar_angle_l	mtp_angle_l	lumbar_extension	lumbar_bending	lumbar_rotation	arm_flex_r	arm_add_r	arm_rot_r	elbow_flex_r	pro_sup_r	wrist_flex_r	wrist_dev_r	arm_flex_l	arm_add_l	arm_rot_l	elbow_flex_l	pro_sup_l	wrist_flex_l	wrist_dev_l
      0.00000000	     -2.10628807	      0.28165219	     -0.30985934	     -1.19734725	      0.89600748	     -1.17722083	     24.25149452	      2.70736986	     -4.54328525	    -44.21561496	     -0.77170806	      3.77832603	     -9.93320547	     -1.00009734	     -1.52743801	     -1.04116535	     15.49112456	    -11.20231404	     -0.19551726	      7.03016856	    -10.66694907	     -2.34892090	     -8.24603732	      2.57059721	     -5.80842227	      6.10226976	     -9.39245207	     18.52013033	     19.25092520	     89.95437384	      0.00000000	      0.00000000	     19.09747065	     17.75844011	     -9.50078700	     24.75479015	     89.95437384	      0.00000000	      0.00000000
      0.01000000	     -2.30102001	      0.50678671	     -0.54673132	     -1.19036464	      0.89504165	     -1.17879004	     25.20048420	      2.45076547	     -4.90646461	    -42.65094821	     -0.74439948	      3.90590207	     -9.64796818	     -0.94488311	     -1.77424623	     -1.45117270	     15.57986539	    -11.30439179	     -0.19729886	      7.26464591	    -10.47691642	     -2.36319537	     -7.99977985	      2.42214650	     -5.97787337	      5.89872349	     -9.34434511	     18.49218922	     19.29822980	     89.95437384	      0.00000000	      0.00000000	     19.15845062	     17.37836491	     -9.60050021	     25.17032598	     89.95437384	      0.00000000	      0.00000000
      0.02000000	     -1.80269417	      0.00844831	     -0.51970507	     -1.18255732	      0.89527823	     -1.18024641	     24.80213785	      2.98171083	     -5.41914466	    -40.14439682	     -0.70065190	      3.84311819	     -8.64429847	     -0.91649157	     -3.10178334	     -1.14375810	     15.04977625	    -10.92251441	     -0.19063384	      7.83015986	     -9.86296960	     -2.31947641	     -8.47296252	      3.08724398	     -6.37031680	      5.80522625	     -9.30634107	     18.23856150	     19.27939006	     89.95437384	      0.00000000	      0.00000000	     19.12623517	     17.05849738	     -9.97759008	     25.76048391	     89.95437384	      0.00000000	      0.00000000
      0.03000000	     -1.95888902	      0.13059058	     -0.75484792	     -1.17552291	      0.89431459	     -1.18150153	     25.49580928	      2.89272039	     -5.65226636	    -38.23478002	     -0.66732280	      3.66651877	     -8.00573139	     -0.88318245	     -3.49074693	     -1.46564244	     14.85125643	    -10.80893411	     -0.18865149	      8.09281281	     -9.51527068	     -2.31298669	     -8.28078219	      3.02598911	     -6.47375710	      5.59621266	     -9.23192741	     18.12892969	     19.26842107	     89.95437384	      0.00000000	      0.00000000	     19.16542090	     16.69191683	    -10.09391011	     26.25542390	     89.95437384	      0.00000000	      0.00000000
      0.04000000	     -1.83155624	     -0.00149088	     -0.84087635	     -1.16796441	      0.89364854	     -1.18277266	     25.67588578	      3.00151386	     -6.09862056	    -36.04361038	     -0.62907968	      3.41589116	     -7.02055452	     -0.88154779	     -4.17295050	     -1.49580045	     14.51199420	    -10.85242310	     -0.18941051	      8.56048088	     -8.93560602	     -2.29640437	     -8.34668071	      3.22501589	     -6.57016214	      5.33608211	     -9.17317431	     17.86904236	     19.24413832	     89.95437384	      0.00000000	      0.00000000	     19.20182634	     16.28263551	    -10.33345513	     26.81657657	     89.95437384	      0.00000000	      0.00000000
      0.05000000	     -2.07931725	      0.06780416	     -0.98356843	     -1.16093655	      0.89212256	     -1.18378570	     26.51368147	      2.84493154	     -6.78785791	    -34.29997640	     -0.59864752	      3.35430418	     -6.69574145	     -0.83448910	     -4.54558493	     -1.74110569	     14.74926745	    -10.61935390	     -0.18534269	      8.87235905	     -8.73831576	     -2.30971647	     -8.04676040	      3.19424369	     -6.55656165	      5.08243279	     -9.08000314	     17.79671106	     19.11679734	     89.95437384	      0.00000000	      0.00000000	     19.31036598	     15.85538682	    -10.49880476	     27.26312835	     89.95437384	      0.00000000	      0.00000000
      0.06000000	     -1.74229996	     -0.59626685	     -0.82996645	     -1.15356842	      0.89171250	     -1.18470870	     26.15093140	      3.41477639	     -7.78285118	    -31.59233492	     -0.55139026	      2.16768879	     -5.41616965	     -0.78722061	     -5.61786565	     -1.17170259	     14.53302744	    -10.34402093	     -0.18053722	      9.45983130	     -8.21515929	     -2.32824340	     -8.46180453	      3.98366928	     -6.80252092	      4.96761729	     -8.94397103	     17.15530753	     18.98773473	     89.95437384	      0.00000000	      0.00000000	     19.25192684	     15.57759953	    -10.80800780	     28.16862669	     89.95437384	      0.00000000	      0.00000000
      0.07000000	     -1.67445127	     -0.61899655	     -0.91544724	     -1.14629163	      0.89077917	     -1.18581460	     26.38482746	      3.31699029	     -8.59640489	    -29.51807378	     -0.51518758	      1.07464098	     -4.65507197	     -0.71418728	     -6.30238412	     -1.28349400	     14.49288895	    -10.16715470	     -0.17745033	      9.65049556	     -8.07479678	     -2.37896414	     -8.57076190	      4.07168059	     -6.77431336	      4.76211958	     -8.83305753	     16.71584159	     18.86203056	     89.95437384	      0.00000000	      0.00000000	     19.37035950	     15.13907677	    -10.94434058	     28.64843727	     89.95437384	      0.00000000	      0.00000000
      0.08000000	     -1.84843593	     -0.61864699	     -1.00540721	     -1.13909527	      0.88921273	     -1.18679806	     26.93499187	      3.20720946	     -9.34839965	    -27.60129872	     -0.48173354	     -0.20197833	     -4.00756701	     -0.56620923	     -6.67476764	     -1.41915537	     14.50163295	    -10.15136090	     -0.17717467	     10.01065066	     -7.97868340	     -2.41613647	     -8.40943665	      4.13428246	     -6.77031365	      4.55159456	     -8.74144128	     16.55442375	     18.72911783	     89.95437384	      0.00000000	      0.00000000	     19.36035367	     14.79896863	    -11.19189207	     29.29586143	     89.95437384	      0.00000000	      0.00000000
      0.09000000	     -1.33209222	     -0.59795349	     -1.01695384	     -1.13113298	      0.88886134	     -1.18815109	     26.57424779	      2.88485897	    -10.78888592	    -25.64473008	     -0.44758498	     -1.57923333	     -3.05350134	     -0.58817731	     -7.90375240	     -1.62888818	     13.93693601	     -9.99788876	     -0.17449608	     10.35951751	     -7.33640866	     -2.21679194	     -9.00098173	      4.20937995	     -6.77727285	      4.41955689	     -8.62084169	     16.02198986	     18.49542421	     89.95437384	      0.00000000	      0.00000000	     19.47977583	     14.35690863	    -11.33534300	     29.74281407	     89.95437384	      0.00000000	      0.00000000
      0.10000000	     -1.38437898	     -0.54016832	     -1.07690117	     -1.12373813	      0.88748853	     -1.18895663	     26.96728014	      2.66842234	    -11.85093592	    -23.94213110	     -0.41786902	     -3.27379275	     -2.46291253	     -0.38304002	     -8.27805049	     -1.73443149	     14.01107554	    -10.23081716	     -0.17856144	     10.58440005	     -7.32859654	     -2.22931870	     -8.98740451	      4.19095507	     -6.72670737	      4.25827572	     -8.51007155	     15.99079676	     18.24054654	     89.95437384	      0.00000000	      0.00000000	     19.50382987	     14.01085804	    -11.55343866	     30.25545566	     89.95437384	      0.00000000	      0.00000000
      0.11000000	     -1.25724143	     -0.60677377	     -1.09822060	     -1.11611970	      0.88639179	     -1.18965508	     27.03178928	      2.53826700	    -13.39553846	    -22.19217586	     -0.38732654	     -5.08546220	     -1.88785866	     -0.17467572	     -8.98984387	     -1.71237096	     13.98487123	    -10.17569191	     -0.17759933	     10.68761300	     -7.49347804	     -2.28616449	     -9.17425648	      4.30339722	     -6.63373843	      4.11752255	     -8.40567484	     15.92825489	     17.96463586	     89.95437384	      0.00000000	      0.00000000	     19.51113461	     13.68331638	    -11.76054455	     30.84415453	     89.95437384	      0.00000000	      0.00000000
      0.12000000	     -0.94532071	     -0.82396329	     -0.94317453	     -1.10818298	      0.88551754	     -1.19032605	     26.81487418	      2.49709765	    -15.17025700	    -20.57501238	     -0.35910171	     -6.38867252	     -1.09276755	     -0.10320878	     -9.75766604	     -1.42262292	     14.21867678	    -10.49427224	     -0.18315960	     10.93844893	     -7.89747432	     -2.38725262	     -9.56937372	      4.58075216	     -6.63740075	      3.99035917	     -8.30045996	     15.87345191	     17.69135560	     89.95437384	      0.00000000	      0.00000000	     19.59504725	     13.28962805	    -11.82163141	     31.22153800	     89.95437384	      0.00000000	      0.00000000
      0.13000000	     -1.11252922	     -0.56503808	     -1.15601758	     -1.10048405	      0.88381976	     -1.19082399	     27.38306187	      2.17065853	    -15.97308044	    -19.66244933	     -0.34317448	     -6.39161830	     -1.09172901	     -0.05549958	    -10.07270784	     -1.75769319	     14.26294649	    -10.61754876	     -0.18531118	     11.00251351	     -7.91710216	     -2.41571916	     -9.42412099	      4.30736098	     -6.21185718	      3.75770484	     -8.22171195	     15.94139811	     17.36376865	     89.95437384	      0.00000000	      0.00000000	     19.62512414	     12.81561675	    -11.89921440	     31.60468679	     89.95437384	      0.00000000	      0.00000000
      0.14000000	     -0.88967645	     -0.69863136	     -0.76923106	     -1.09242540	      0.88305668	     -1.19175112	     26.88315013	      2.08156057	    -17.37037880	    -17.70198844	     -0.30895798	     -7.66268219	      0.16159716	     -0.00765760	    -10.63799318	     -1.49772582	     14.09404870	    -11.06473430	     -0.19311604	     10.87524515	     -8.10343992	     -2.51423773	     -9.66583577	      4.52596081	     -6.59227352	      3.80655174	     -8.05303950	     16.01472610	     16.79397491	     89.95437384	      0.00000000	      0.00000000	     19.43014671	     12.64760439	    -12.09104838	     32.15154143	     89.95437384	      0.00000000	      0.00000000
      0.15000000	     -0.68455807	     -0.88733924	     -0.62085827	     -1.08396611	      0.88215590	     -1.19207978	     26.60614299	      2.11870334	    -18.67549775	    -16.61858027	     -0.29004894	     -7.11713961	      1.14935094	     -0.24426511	    -11.20539811	     -1.15526692	     14.12824083	    -11.60620027	     -0.20256641	     11.03077577	     -8.38489922	     -2.67904456	     -9.87982984	      4.74011202	     -6.46397362	      3.67087636	     -7.97308502	     16.19665030	     16.35016574	     89.95437384	      0.00000000	      0.00000000	     19.40262054	     12.24166038	    -12.15742331	     32.38715933	     89.95437384	      0.00000000	      0.00000000
